# xmcd CD database file
#
# Track frame offsets:
#	150
#	7592
#	27181
#	33670
#	48786
#	52903
#	64129
#	71083
#	75698
#	80301
#	87874
#	107415
#	114892
#	137180
#	145347
#	160260
#	165750
#
# Disc length: 2329 seconds
#
# Revision: 0
# Processed by: cddbd v1.5.1PL0 Copyright (c) Steve Scherf et al.
# Submitted via: CDex 1.60beta1
#
DISCID=c5091711
DTITLE=Alex Kharlamov - Posa Somata, Posa Pneumata
DYEAR=1900
DGENRE=New Age
TTITLE0=Posa Somata, Posa Pneumata
TTITLE1=Paean
TTITLE2=Katolofirome
TTITLE3=Hymn to Nemesis
TTITLE4=Song of Seikilos
TTITLE5=Chorus of Athenaios
TTITLE6=Musa
TTITLE7=Morning
TTITLE8=Remembrance
TTITLE9=Miroloi
TTITLE10=Invocation
TTITLE11=Song of Tecmessa
TTITLE12=Prosodion
TTITLE13=Theologismos
TTITLE14=Poema
TTITLE15=Song of Seikilos (Reprise)
TTITLE16=Paean (Reprise)
EXTD=
EXTT0=
EXTT1=
EXTT2=
EXTT3=
EXTT4=
EXTT5=
EXTT6=
EXTT7=
EXTT8=
EXTT9=
EXTT10=
EXTT11=
EXTT12=
EXTT13=
EXTT14=
EXTT15=
EXTT16=
PLAYORDER=
